#!OML:ASF F:\VICON\USERDATA\INSTALL\Justin_Nancy\Justin_Nancy.ASF
:FULLY-SPECIFIED
:DEGREES
1
root -12.731 16.7318 -30.0045 5.61034 -6.71461 -3.59548
lowerback 12.5901 -0.562171 -2.04456
upperback 0.229674 -0.687448 5.21469
thorax -6.75308 -0.182457 6.86829
lowerneck -16.0335 -0.20738 -11.786
upperneck 7.88198 1.59268 5.45879
head 4.82815 0.789545 3.75049
rclavicle 4.8901e-014 -3.81667e-014
rhumerus -36.8552 25.6617 -88.7259
rradius 109.335
rwrist -2.6306
rhand -13.597 25.0263
rfingers 7.12502
rthumb 12.5177 -4.5788
lclavicle 4.8901e-014 -3.81667e-014
lhumerus -45.566 2.77043 92.0117
lradius 98.9427
lwrist 22.6479
lhand -18.3467 10.9285
lfingers 7.12502
lthumb 7.93567 40.7595
rfemur -25.9342 -2.5811 26.4498
rtibia 48.1663
rfoot -18.5006 -12.5986
rtoes -9.49388
lfemur -12.9418 -2.14065 -19.6503
ltibia 81.9178
lfoot 10.1408 -3.44681
ltoes -10.689
2
root -12.7344 16.7339 -29.679 6.38355 -7.73794 -4.26689
lowerback 11.9425 0.122433 -2.05539
upperback -0.0130614 0.243977 5.43563
thorax -6.77411 0.285667 6.93898
lowerneck -15.2944 -0.409048 -11.7524
upperneck 7.56688 1.24395 5.30974
head 4.64345 0.609842 3.65745
rclavicle 7.95139e-016 5.24792e-014
rhumerus -36.1156 26.205 -88.4932
rradius 109.707
rwrist -2.85544
rhand -14.3462 28.5817
rfingers 7.12502
rthumb 11.7953 -1.06619
lclavicle 7.95139e-016 5.24792e-014
lhumerus -46.4977 2.90743 92.4968
lradius 99.241
lwrist 22.7776
lhand -18.1461 10.9666
lfingers 7.12502
lthumb 8.12935 40.7902
rfemur -25.2076 -1.7556 27.0056
rtibia 47.6071
rfoot -17.9905 -13.3375
rtoes -14.0031
lfemur -15.8955 -0.509656 -18.7544
ltibia 83.3247
lfoot 8.4473 -2.92601
ltoes -11.4279
3
root -12.7184 16.7655 -29.3397 6.03953 -5.8827 -4.64512
lowerback 12.3881 -0.051836 -1.13706
upperback 0.042445 0.143394 5.39097
thorax -6.94869 0.207005 6.38352
lowerneck -15.5093 -0.878554 -11.5948
upperneck 7.77359 0.601334 5.36801
head 4.79892 0.30028 3.60412
rclavicle 3.57812e-015 -3.33958e-014
rhumerus -35.0526 26.1482 -88.1477
rradius 110.152
rwrist -3.12132
rhand -10.3102 21.47
rfingers 7.12502
rthumb 15.6849 -7.91425
lclavicle 3.57812e-015 -3.33958e-014
lhumerus -46.7304 2.23688 92.9111
lradius 99.3314
lwrist 23.2444
lhand -17.9351 10.8015
lfingers 7.12502
lthumb 8.33292 40.6171
rfemur -22.8814 -3.31745 27.3956
rtibia 46.6379
rfoot -18.0409 -14.1465
rtoes -15.5335
lfemur -18.0167 -1.81693 -18.0338
ltibia 84.0712
lfoot 7.2743 -2.52598
ltoes -10.5694
4
root -12.6981 16.8115 -28.992 6.03829 -5.00735 -5.21434
lowerback 12.3303 -0.221613 -0.581406
upperback -0.0630184 0.019147 5.65212
thorax -7.0151 0.134883 6.37149
lowerneck -14.9461 -0.845599 -11.7186
upperneck 7.59393 0.613432 5.27805
head 4.6514 0.294831 3.58988
rclavicle -2.0276e-014 5.80451e-014
rhumerus -33.7427 27.4189 -87.74
rradius 110.173
rwrist -3.67198
rhand -11.8942 23.2228
rfingers 7.12502
rthumb 14.159 -6.27467
lclavicle -2.0276e-014 5.80451e-014
lhumerus -47.4089 2.73756 93.242
lradius 99.5539
lwrist 23.5543
lhand -17.4076 10.3649
lfingers 7.12502
lthumb 8.842 40.1597
rfemur -20.8344 -3.86642 27.819
rtibia 45.6758
rfoot -18.4077 -14.2041
rtoes -14.3207
lfemur -20.1563 -2.15446 -17.3242
ltibia 84.4709
lfoot 5.61752 -1.97873
ltoes -11.0663
5
root -12.6686 16.8929 -28.6235 6.08187 -4.77317 -5.54899
lowerback 9.59214 -0.198442 1.62332
upperback 1.41413 0.0861009 4.4114
thorax -3.9155 0.0433672 3.67417
lowerneck -15.0981 -0.961947 -11.077
upperneck 6.60624 0.233928 6.47911
head 4.40066 0.228128 3.83119
rclavicle 1.38155e-014 3.26007e-014
rhumerus -29.4454 27.0582 -87.8675
rradius 109.843
rwrist -3.78518
rhand -13.2273 23.7961
rfingers 7.12502
rthumb 12.8741 -5.78684
lclavicle 1.38155e-014 3.26007e-014
lhumerus -45.7619 1.2562 91.8462
lradius 99.7363
lwrist 24.2735
lhand -16.9128 10.305
lfingers 7.12502
lthumb 9.31951 40.079
rfemur -18.7935 -3.9615 27.8666
rtibia 44.5714
rfoot -18.1637 -14.214
rtoes -15.5799
lfemur -21.8315 -1.89595 -17.1231
ltibia 84.232
lfoot 4.27985 -1.6698
ltoes -12.033
6
root -12.6398 16.9545 -28.2652 6.12121 -4.83212 -6.10157
lowerback 7.76198 -0.129586 3.04685
upperback 2.25851 0.151723 3.85998
thorax -2.01854 0.0642969 2.26236
lowerneck -14.1091 -1.06067 -10.7478
upperneck 4.98953 -0.0735717 6.94315
head 3.77385 0.123462 3.88041
rclavicle 5.36719e-015 -1.74931e-014
rhumerus -28.3708 27.3692 -88.4948
rradius 110.965
rwrist -3.42131
rhand -13.1121 22.6752
rfingers 7.12502
rthumb 12.9851 -6.90074
lclavicle 5.36719e-015 -1.74931e-014
lhumerus -45.3485 0.934406 91.1014
lradius 100.13
lwrist 24.8292
lhand -16.6437 10.7601
lfingers 7.12502
lthumb 9.57916 40.5224
rfemur -16.8688 -3.6733 28.1435
rtibia 43.5032
rfoot -17.5907 -14.1195
rtoes -17.0021
lfemur -23.4333 -1.25653 -16.7255
ltibia 83.7906
lfoot 1.56712 -0.999353
ltoes -18.373
7
root -12.6186 17.0012 -27.9222 6.35495 -4.95047 -6.63567
lowerback 6.58112 0.0233909 3.6887
upperback 2.45495 0.31577 3.79135
thorax -1.15758 0.153986 1.81342
lowerneck -12.8356 -0.965635 -10.8871
upperneck 4.21042 -0.0631018 7.28209
head 3.33353 0.133853 3.99705
rclavicle -1.5704e-014 -1.31198e-014
rhumerus -28.6039 28.1602 -89.1144
rradius 111.822
rwrist -4.04184
rhand -13.6192 23.8821
rfingers 7.12502
rthumb 12.4963 -5.7243
lclavicle -1.5704e-014 -1.31198e-014
lhumerus -45.8985 1.04829 90.9649
lradius 100.56
lwrist 25.2043
lhand -16.3319 10.8772
lfingers 7.12502
lthumb 9.87999 40.6254
rfemur -15.3392 -3.26423 28.4416
rtibia 42.4724
rfoot -16.5388 -13.9697
rtoes -18.4739
lfemur -25.2782 -0.591887 -16.3376
ltibia 83.1409
lfoot -0.547588 -0.681753
ltoes -20.1467
8
root -12.5962 17.0711 -27.5763 6.67549 -4.72325 -7.20672
lowerback 6.08537 0.116095 3.94757
upperback 2.07721 0.448553 4.1021
thorax -1.27227 0.217431 1.98082
lowerneck -11.4624 -0.81491 -11.184
upperneck 3.94277 0.0439295 7.28644
head 3.02283 0.162766 4.0435
rclavicle 6.85807e-015 7.15625e-015
rhumerus -29.3901 29.1027 -89.4122
rradius 112.534
rwrist -4.6824
rhand -14.0198 24.5144
rfingers 7.12502
rthumb 12.11 -5.11516
lclavicle 6.85807e-015 7.15625e-015
lhumerus -47.2795 1.55031 91.3199
lradius 100.974
lwrist 25.2821
lhand -15.9056 10.5512
lfingers 7.12502
lthumb 10.2912 40.2795
rfemur -13.9552 -3.04984 28.7888
rtibia 41.4306
rfoot -15.0683 -13.809
rtoes -20.5416
lfemur -27.1205 -0.318357 -15.9394
ltibia 82.1325
lfoot -1.48749 -0.748109
ltoes -17.9529
9
root -12.5647 17.1508 -27.2174 6.70779 -4.39357 -7.57375
lowerback 6.41746 0.230229 3.78782
upperback 1.41958 0.662985 4.53598
thorax -2.14556 0.314524 2.50451
lowerneck -10.2874 -0.696871 -11.5565
upperneck 3.9773 0.125899 7.22355
head 2.83636 0.174497 4.08274
rclavicle 1.53064e-014 -3.22031e-014
rhumerus -30.8217 29.9503 -89.6591
rradius 113.217
rwrist -5.68692
rhand -14.2275 26.0076
rfingers 7.12502
rthumb 11.9097 -3.63368
lclavicle 1.53064e-014 -3.22031e-014
lhumerus -49.199 2.16181 91.945
lradius 101.453
lwrist 25.2333
lhand -15.6795 10.6088
lfingers 7.12502
lthumb 10.5094 40.3261
rfemur -12.2485 -2.97698 28.8479
rtibia 40.3555
rfoot -13.3652 -13.5124
rtoes -22.8751
lfemur -28.5288 -0.152398 -15.8919
ltibia 80.7001
lfoot -2.14802 -0.781618
ltoes -15.4159
10
root -12.5255 17.2428 -26.8424 6.66816 -3.99301 -8.05758
lowerback 7.06353 0.528819 3.74544
upperback 0.71101 1.16393 5.00431
thorax -3.26119 0.5565 2.97166
lowerneck -9.86626 -0.757638 -11.9436
upperneck 4.78101 0.0266687 7.20334
head 3.02 0.0969794 4.13815
rclavicle -2.27608e-014 -1.98785e-014
rhumerus -32.498 30.6732 -89.9463
rradius 113.902
rwrist -5.28212
rhand -14.9075 22.9305
rfingers 7.12502
rthumb 11.254 -6.74764
lclavicle -2.27608e-014 -1.98785e-014
lhumerus -51.0431 2.24592 92.8477
lradius 101.734
lwrist 25.0116
lhand -15.9988 10.877
lfingers 7.12502
lthumb 10.2013 40.6097
rfemur -10.3208 -2.97296 28.97
rtibia 39.1336
rfoot -11.7684 -12.7413
rtoes -23.8018
lfemur -29.6842 -0.120831 -15.7887
ltibia 78.8679
lfoot -2.73465 -0.989447
ltoes -12.9118
11
root -12.4829 17.3541 -26.4471 6.53396 -3.80661 -8.38839
lowerback 7.90596 1.1919 3.73663
upperback 0.131404 2.15733 5.20509
thorax -4.37262 1.0431 3.07265
lowerneck -10.3624 -1.04059 -12.0525
upperneck 6.23633 -0.321358 7.26428
head 3.57514 -0.0926489 4.17029
rclavicle -5.66536e-015 1.11319e-014
rhumerus -33.8006 30.4427 -90.0152
rradius 114.448
rwrist -4.21776
rhand -15.7246 19.9946
rfingers 7.12502
rthumb 10.4658 -9.72486
lclavicle -5.66536e-015 1.11319e-014
lhumerus -52.3983 1.30669 93.8602
lradius 101.685
lwrist 24.6294
lhand -16.337 10.9624
lfingers 7.12502
lthumb 9.87503 40.7108
rfemur -8.25147 -2.76827 28.8363
rtibia 37.8965
rfoot -10.0153 -11.4282
rtoes -23.7305
lfemur -30.409 -0.091515 -15.9276
ltibia 76.617
lfoot -3.21409 -1.16868
ltoes -10.6809
12
root -12.4361 17.4624 -26.04 6.38949 -3.91922 -8.67643
lowerback 8.82796 2.22985 4.04877
upperback -0.216083 3.65464 4.98779
thorax -5.26446 1.76289 2.45697
lowerneck -12.2053 -1.67979 -11.6896
upperneck 8.2826 -1.11139 7.59742
head 4.58005 -0.455582 4.19004
rclavicle 2.06736e-014 2.94201e-014
rhumerus -34.4019 28.6145 -89.6999
rradius 114.813
rwrist -4.42064
rhand -15.9228 20.8088
rfingers 7.12502
rthumb 10.2746 -8.92023
lclavicle 2.06736e-014 2.94201e-014
lhumerus -53.2451 -0.807269 94.6873
lradius 101.637
lwrist 24.4482
lhand -16.5649 10.7331
lfingers 7.12502
lthumb 9.65513 40.4918
rfemur -6.23083 -2.2851 28.569
rtibia 36.6419
rfoot -7.78913 -9.8249
rtoes -23.0734
lfemur -30.8301 0.171016 -16.2039
ltibia 74.0725
lfoot -3.80274 -1.11675
ltoes -9.19785
13
root -12.4 17.5562 -25.6619 6.35123 -3.10146 -8.80097
lowerback 10.3162 3.07407 4.36621
upperback -0.609836 4.93146 4.55097
thorax -6.47799 2.3503 1.56424
lowerneck -15.6139 -2.74129 -10.9834
upperneck 10.6612 -2.40128 7.75307
head 6.00906 -1.01744 4.04117
rclavicle 1.23246e-014 3.18055e-015
rhumerus -34.6081 26.0271 -89.3079
rradius 115.1
rwrist -5.07526
rhand -15.4652 23.2226
rfingers 7.12502
rthumb 10.7161 -6.48409
lclavicle 1.23246e-014 3.18055e-015
lhumerus -53.6748 -3.41669 95.2956
lradius 101.548
lwrist 24.3587
lhand -16.4573 10.7317
lfingers 7.12502
lthumb 9.759 40.4856
rfemur -4.54185 -2.53676 28.3305
rtibia 35.3464
rfoot -5.12667 -8.63073
rtoes -22.8231
lfemur -31.6401 -0.244275 -16.5143
ltibia 71.3521
lfoot -4.65482 -1.18287
ltoes -9.60983
14
root -12.3667 17.6499 -25.2871 6.32573 -1.82555 -8.85652
lowerback 10.211 3.63214 5.3637
upperback 0.455403 5.6455 3.64403
thorax -5.09801 2.69504 0.00284535
lowerneck -21.3029 -4.0872 -9.6678
upperneck 12.15 -4.03858 7.72712
head 7.56774 -1.6469 3.63084
rclavicle -7.44449e-014 1.43125e-014
rhumerus -31.8953 23.9087 -88.7163
rradius 114.882
rwrist -3.07219
rhand -15.5447 20.9887
rfingers 7.12502
rthumb 10.6393 -8.72193
lclavicle -7.44449e-014 1.43125e-014
lhumerus -51.4145 -6.36618 94.8493
lradius 101.324
lwrist 24.3497
lhand -16.0468 10.8735
lfingers 7.12502
lthumb 10.155 40.6084
rfemur -2.89253 -3.17634 28.0869
rtibia 33.9899
rfoot -2.32397 -7.67235
rtoes -22.4027
lfemur -32.3802 -1.06866 -16.8665
ltibia 68.4013
lfoot -6.0965 -1.36939
ltoes -12.469
15
root -12.3253 17.7476 -24.8867 6.14278 -1.16382 -8.97936
lowerback 10.0491 3.5298 5.27893
upperback 0.0739502 5.52831 3.84884
thorax -5.44329 2.63062 0.275529
lowerneck -19.8002 -4.00816 -10.0233
upperneck 11.5963 -3.9402 7.65479
head 7.13399 -1.65137 3.67752
rclavicle -5.52621e-014 -4.01545e-014
rhumerus -33.2301 24.8909 -89.2414
rradius 114.985
rwrist -2.21821
rhand -15.0578 20.9246
rfingers 7.12502
rthumb 11.109 -8.76141
lclavicle -5.52621e-014 -4.01545e-014
lhumerus -53.1841 -5.46997 94.9894
lradius 101.793
lwrist 24.0108
lhand -15.9359 11.2584
lfingers 7.12502
lthumb 10.262 40.988
rfemur -1.09623 -3.42965 27.746
rtibia 32.6109
rfoot 0.824762 -6.652
rtoes -21.2323
lfemur -32.5116 -1.3478 -17.2411
ltibia 65.1772
lfoot -7.60735 -1.44737
ltoes -17.2168
